<svg width="468" height="589" fill="none" xmlns="http://www.w3.org/2000/svg"><g clip-path="url(#a)"><path fill="#000" d="M0 0h468v171.495H0z"/><path d="m70.774 88.952-5.384 6.369v11.926h-7.642V66.835h7.642v19.917h.29l5.731-7.585 10.016-12.332h8.8L76.16 83.683l15.227 23.564h-9.09L70.774 88.952Zm51.224 18.295-3.242-10.305h-14.359l-3.184 10.305h-7.758l13.547-40.412h9.496l13.432 40.412h-7.932Zm-10.306-33.464h-.289l-5.153 16.616h10.653l-5.211-16.616Zm24.194 33.464V66.835h7.642v33.638h15.922v6.774h-23.564Zm28.513 0v-6.137h5.327V72.972h-5.327v-6.137h18.353v6.138h-5.384v28.137h5.384v6.137h-18.353Zm26.161-40.412h18.701c1.659 0 3.145.251 4.458.753 1.351.502 2.489 1.197 3.416 2.084.926.888 1.621 1.988 2.084 3.3.502 1.274.753 2.683.753 4.227 0 1.544-.213 2.856-.637 3.937-.386 1.042-.927 1.91-1.621 2.605a6.325 6.325 0 0 1-2.316 1.564 7.842 7.842 0 0 1-2.664.578v.348c.888 0 1.834.174 2.837.52a7.891 7.891 0 0 1 2.837 1.68c.888.733 1.621 1.698 2.2 2.895.579 1.158.869 2.605.869 4.342 0 1.621-.27 3.146-.811 4.574-.501 1.389-1.216 2.605-2.142 3.647a10.482 10.482 0 0 1-3.3 2.49c-1.274.579-2.663.868-4.169.868H190.56V66.835Zm7.642 33.928h10.653c1.467 0 2.606-.367 3.416-1.1.811-.772 1.216-1.872 1.216-3.3v-1.969c0-1.428-.405-2.528-1.216-3.3-.81-.772-1.949-1.158-3.416-1.158h-10.653v10.827Zm0-17.08h9.437c1.39 0 2.471-.366 3.243-1.1.772-.772 1.158-1.833 1.158-3.184v-1.795c0-1.35-.386-2.393-1.158-3.126-.772-.772-1.853-1.158-3.243-1.158h-9.437v10.363Zm38.391 23.564h-7.642V66.835h18.237c1.853 0 3.512.29 4.979.869s2.702 1.428 3.706 2.547c1.042 1.081 1.833 2.393 2.373 3.937.579 1.544.869 3.262.869 5.153 0 2.78-.637 5.172-1.911 7.18-1.235 2.006-3.107 3.435-5.616 4.284l8.279 16.442h-8.51l-7.527-15.574h-7.237v15.574Zm9.842-22c1.467 0 2.625-.386 3.474-1.158.849-.81 1.274-1.95 1.274-3.416V78.01c0-1.467-.425-2.587-1.274-3.359-.849-.772-2.007-1.157-3.474-1.157h-9.842v11.753h9.842Zm20.963 22V66.835h26.632v6.774h-18.99v9.785h16.79v6.774h-16.79v10.305h18.99v6.774h-26.632Zm42.358 0h-7.643V66.835h18.238c1.852 0 3.512.29 4.979.869s2.702 1.428 3.705 2.547c1.042 1.081 1.834 2.393 2.374 3.937.579 1.544.868 3.262.868 5.153 0 2.78-.636 5.172-1.91 7.18-1.235 2.006-3.107 3.435-5.616 4.284l8.279 16.442h-8.511l-7.526-15.574h-7.237v15.574Zm9.842-22c1.467 0 2.625-.386 3.474-1.158.849-.81 1.274-1.95 1.274-3.416V78.01c0-1.467-.425-2.587-1.274-3.359-.849-.772-2.007-1.157-3.474-1.157h-9.842v11.753h9.842Zm45.974 22-3.242-10.305h-14.359l-3.184 10.305h-7.758l13.548-40.412h9.495l13.432 40.412h-7.932Zm-10.306-33.464h-.289l-5.153 16.616h10.653l-5.211-16.616Zm24.194-6.948h14.706c2.624 0 4.998.425 7.121 1.274 2.161.85 3.995 2.123 5.5 3.821 1.544 1.66 2.721 3.764 3.532 6.311.849 2.509 1.274 5.442 1.274 8.8 0 3.358-.425 6.311-1.274 8.859-.811 2.508-1.988 4.612-3.532 6.31-1.505 1.66-3.339 2.915-5.5 3.764-2.123.849-4.497 1.273-7.121 1.273H379.46V66.835Zm14.706 33.638c2.856 0 5.114-.83 6.774-2.49 1.698-1.697 2.547-4.283 2.547-7.757v-6.369c0-3.474-.849-6.04-2.547-7.7-1.66-1.698-3.918-2.548-6.774-2.548h-7.064v26.864h7.064ZM0 171.495h468v417.196H0z" fill="#fff"/><path stroke="#000" stroke-width="4.825" d="M43.423 207.68h381.154"/><path d="M49.782 263.593v-1.911h2.547v-16.385h-2.547v-1.91h7.41v1.91h-2.547v16.385h2.547v1.911h-7.41Zm11.356-20.206h6.34c2.335 0 4.14.81 5.413 2.431 1.274 1.602 1.911 4.159 1.911 7.672 0 3.512-.637 6.079-1.91 7.7-1.274 1.602-3.079 2.403-5.414 2.403h-6.34v-20.206Zm6.34 18.179c1.448 0 2.615-.501 3.503-1.505.888-1.003 1.331-2.441 1.331-4.313v-4.516c0-1.872-.444-3.31-1.331-4.313-.888-1.004-2.055-1.506-3.503-1.506h-4.024v16.153h4.024Zm21.49-11.087-1.766-4.168h-.29l.203 4.168v13.114h-2.258v-20.206h2.837L94.41 256.5l1.766 4.169h.29l-.203-4.169v-13.113h2.257v20.206h-2.837l-6.716-13.114Zm16.637 13.114h-2.316v-20.206h7.44c3.338 0 5.008 1.92 5.008 5.761 0 3.242-1.197 5.114-3.59 5.616l4.082 8.829h-2.606l-3.792-8.685h-4.226v8.685Zm5.066-10.653c1.717 0 2.576-.927 2.576-2.779v-1.969c0-1.852-.859-2.779-2.576-2.779h-5.066v7.527h5.066Zm10.685 11c-1.138 0-1.708-.492-1.708-1.476v-.463c0-.985.57-1.477 1.708-1.477 1.139 0 1.708.492 1.708 1.477v.463c0 .984-.569 1.476-1.708 1.476Zm0-12.042c-1.138 0-1.708-.492-1.708-1.477v-.463c0-.984.57-1.476 1.708-1.476 1.139 0 1.708.492 1.708 1.476v.463c0 .985-.569 1.477-1.708 1.477ZM225.728 270.434c0-.553.294-1.123.881-1.71a27.627 27.627 0 0 1 2.229-1.866 96.853 96.853 0 0 1 2.954-2.177 23.141 23.141 0 0 0 2.903-2.539 14.757 14.757 0 0 0 2.228-2.954 6.708 6.708 0 0 0 .933-3.421c0-.864-.19-1.572-.57-2.125a3.607 3.607 0 0 0-1.347-1.348c-.553-.311-1.193-.518-1.918-.622a10.561 10.561 0 0 0-2.073-.207 4.277 4.277 0 0 0-2.177.363c-.657.276-1.33.622-2.021 1.037a31 31 0 0 0-1.97 1.243c-.622.415-1.244.761-1.866 1.037a3.491 3.491 0 0 1-1.762.259c-.553-.069-1.123-.38-1.71-.933v-.155c0-.104.017-.156.052-.156l9.225-10.573c1.002-1.382 1.503-2.453 1.503-3.213.035-.76-.242-1.261-.829-1.503-.553-.277-1.33-.328-2.332-.156-1.002.173-2.039.501-3.11.985a16.318 16.318 0 0 0-3.006 1.71c-.968.692-1.676 1.417-2.125 2.177a.866.866 0 0 0-.207.052h-.156c-.414 0-.812-.173-1.192-.518-.345-.38-.518-.778-.518-1.192 0-.484.276-.968.829-1.451.553-.519 1.261-1.002 2.125-1.452a22.783 22.783 0 0 1 2.902-1.347 42.89 42.89 0 0 1 3.162-1.089 29.661 29.661 0 0 1 2.902-.725c.899-.207 1.59-.311 2.073-.311.899.449 1.486 1.036 1.763 1.762.276.691.328 1.486.155 2.384-.138.864-.449 1.78-.933 2.747a21.293 21.293 0 0 1-1.607 2.851 52.712 52.712 0 0 1-1.813 2.695 74.83 74.83 0 0 0-1.555 2.228 4.353 4.353 0 0 1 2.332-.673 61.507 61.507 0 0 1 2.488-.052c.898 0 1.814.121 2.747.362a8.052 8.052 0 0 1 2.539 1.141 6 6 0 0 1 1.866 1.866c.484.725.726 1.606.726 2.643 0 1.727-.467 3.386-1.4 4.975a24.618 24.618 0 0 1-3.42 4.509 39.258 39.258 0 0 1-4.354 3.939 1482.641 1482.641 0 0 1-4.198 3.162 5.296 5.296 0 0 1-.933-.674 1.347 1.347 0 0 1-.415-.985Zm21.457-.362a125.925 125.925 0 0 0 2.903-5.183 54.187 54.187 0 0 0 2.539-5.39 37.126 37.126 0 0 0 1.814-5.546c.449-1.9.691-3.853.726-5.857-.346-1.14-.726-2.021-1.14-2.643-.38-.656-.951-.898-1.711-.726-.76.139-1.796.743-3.109 1.814-1.313 1.072-3.093 2.73-5.339 4.976a15.567 15.567 0 0 1-.933-.674c-.276-.276-.414-.587-.414-.933v-.155a.889.889 0 0 0 .052-.207c.656-.726 1.399-1.555 2.228-2.488a29.028 29.028 0 0 1 2.799-2.643 15.395 15.395 0 0 1 3.11-2.022 7.77 7.77 0 0 1 3.524-.829c1.209.553 2.073 1.451 2.591 2.695.519 1.209.778 2.626.778 4.25.034 1.589-.138 3.3-.519 5.131a39.597 39.597 0 0 1-1.554 5.39 45.706 45.706 0 0 1-2.125 5.131c-.76 1.624-1.503 3.006-2.229 4.146l13.89-4.198h.259c.173-.034.311-.052.415-.052.173 0 .38.018.622.052.242.035.449.087.622.156.207.069.38.173.518.311a.637.637 0 0 1 .259.518c-1.244.795-2.695 1.451-4.353 1.969-1.624.519-3.317 1.02-5.08 1.504-1.727.449-3.42.898-5.079 1.347-1.658.449-3.144.985-4.457 1.607-.449 0-.829-.052-1.14-.156-.311-.138-.467-.57-.467-1.295Zm29.802.725c0-.725.19-1.451.57-2.177.414-.725.915-1.468 1.503-2.228a343.92 343.92 0 0 1 1.969-2.384 21.077 21.077 0 0 0 1.97-2.644 17.505 17.505 0 0 0 1.503-3.006c.414-1.071.622-2.246.622-3.524-.035-2.73-1.192-3.749-3.473-3.058-2.246.691-5.425 3.283-9.536 7.774a1.83 1.83 0 0 1-.467-.155c-.138-.104-.259-.311-.363-.622-.103-.346-.207-.847-.311-1.503-.103-.657-.172-1.572-.207-2.747 0-1.175.017-2.643.052-4.405.035-1.763.121-3.939.259-6.531-.622-.38-1.036-.829-1.244-1.347-.207-.553-.276-1.106-.207-1.659.069-.587.242-1.14.518-1.658.277-.553.588-1.002.933-1.348.38-.38.76-.622 1.14-.725.415-.139.76-.07 1.037.207.311 0 .57.104.777.311.242.173.415.38.519.622.138.242.224.518.259.829.069.276.138.536.207.777l15.911-3.99h.311c.208-.035.363-.052.467-.052.311 0 .604.069.881.207.276.138.414.398.414.778 0 .345-.069.656-.207.933a3.959 3.959 0 0 1-.518.829c-1.728-.277-3.404-.242-5.027.103-1.59.311-3.214.709-4.872 1.192-2.073.553-3.68 1.072-4.82 1.555-1.141.45-2.004 1.054-2.592 1.814-.587.726-.95 1.711-1.088 2.955-.138 1.209-.207 2.867-.207 4.975v2.281c.034.483.051.967.051 1.451v.933c.76-.864 1.486-1.693 2.177-2.488a18.847 18.847 0 0 1 2.229-2.177 11.157 11.157 0 0 1 2.539-1.503c.933-.415 1.987-.622 3.162-.622.725 0 1.33.173 1.814.518.518.346.915.778 1.192 1.296.311.518.535 1.106.674 1.762a9.09 9.09 0 0 1 .207 1.866c0 1.762-.294 3.473-.881 5.131a21.52 21.52 0 0 1-2.281 4.768 29.59 29.59 0 0 1-3.213 4.302 40.668 40.668 0 0 1-3.628 3.68c-.38-.138-.605-.311-.674-.518a5.596 5.596 0 0 1-.051-.778Zm35.606-34.258c-1.348 0-2.696.103-4.043.311-1.313.172-2.626.38-3.939.622-1.313.207-2.643.397-3.991.57a30.69 30.69 0 0 1-3.991.259h-.621c-.242 0-.467-.017-.674-.052a1.38 1.38 0 0 1-.467-.311c-.138-.138-.207-.346-.207-.622 0-.242.432-.518 1.296-.829.898-.311 2.038-.622 3.42-.933a82.618 82.618 0 0 1 4.509-.985c1.659-.311 3.266-.587 4.82-.829 1.555-.242 2.92-.432 4.095-.57 1.209-.173 2.038-.259 2.488-.259.898 0 1.347.449 1.347 1.347v.311c0 .173-.017.294-.052.363-.863 1.9-1.693 3.887-2.487 5.96a74.252 74.252 0 0 0-2.125 6.271 60.62 60.62 0 0 0-1.503 6.479 37.046 37.046 0 0 0-.571 6.375c0 1.036.018 1.969.052 2.799.035.794.087 1.606.156 2.436.103.794.242 1.641.414 2.539.208.864.467 1.849.778 2.954a4.673 4.673 0 0 1-.311.985c-.138.276-.38.415-.726.415-.311.034-.673-.018-1.088-.156-.38-.173-.743-.604-1.089-1.296-.345-.691-.621-1.71-.829-3.057-.173-1.348-.19-3.214-.052-5.598.173-2.419.536-5.407 1.089-8.966.587-3.594 1.468-7.93 2.643-13.009l1.659-3.524Zm25.033 6.375a117.82 117.82 0 0 0-2.281 2.954 67.061 67.061 0 0 1-2.591 3.265 60.363 60.363 0 0 1-2.799 3.11 22.344 22.344 0 0 1-2.954 2.591c-1.002.691-2.021 1.192-3.058 1.503a5.244 5.244 0 0 1-3.006.052c-.242 0-.484-.087-.726-.259a4.054 4.054 0 0 1-.622-.674 3.812 3.812 0 0 1-.414-.933 3.417 3.417 0 0 1-.156-.985c0-1.105.19-2.28.57-3.524a23.013 23.013 0 0 1 1.659-3.835 23.86 23.86 0 0 1 2.436-3.732 20.228 20.228 0 0 1 3.006-3.161 15.178 15.178 0 0 1 3.472-2.229c1.21-.553 2.402-.829 3.576-.829 1.279 0 2.315.19 3.11.57.795.38 1.417.881 1.866 1.503.484.622.812 1.365.985 2.228.207.83.345 1.711.414 2.644s.087 1.9.052 2.902c0 .967.017 1.9.052 2.799.069 1.658.173 3.351.311 5.079.173 1.693.328 3.386.466 5.079.173 1.659.311 3.334.415 5.027a60.63 60.63 0 0 1 .207 5.028c0 .276-.017.587-.051.933 0 .345-.052.673-.156.984a1.677 1.677 0 0 1-.466.83c-.242.207-.588.311-1.037.311-.345 0-.587-.139-.726-.415a5.812 5.812 0 0 1-.259-.985c.035-.864.018-2.021-.052-3.472a291.063 291.063 0 0 0-.155-4.768 167.567 167.567 0 0 0-.311-5.442c-.104-1.901-.207-3.732-.311-5.494a531.211 531.211 0 0 0-.311-4.924c-.069-1.52-.121-2.764-.155-3.731Zm-15.912 7.981c-.276 1.14-.311 1.9-.103 2.281.242.38.656.483 1.244.31.587-.172 1.313-.57 2.176-1.192a30.368 30.368 0 0 0 2.695-2.332 47.55 47.55 0 0 0 2.851-3.006 61.062 61.062 0 0 0 2.54-3.213c.76-1.037 1.382-2.004 1.865-2.903.484-.898.761-1.624.83-2.176-1.866 0-3.507.328-4.924.984a13.312 13.312 0 0 0-3.835 2.695c-1.106 1.106-2.108 2.402-3.006 3.888a41.832 41.832 0 0 0-2.333 4.664Z" fill="#000"/><path stroke="#000" stroke-width="4.825" d="M43.423 292.68h381.154"/><path d="m62.027 348.593-1.795-6.05h-7.266l-1.795 6.05h-2.316l6.311-20.206h2.895l6.34 20.206h-2.374Zm-4.66-15.632-.638-2.519h-.29l-.636 2.519-2.287 7.671h6.195l-2.345-7.671Zm12.829 15.632-5.935-20.206h2.432l3.821 13.056 1.013 5.123h.29l1.013-5.123 3.85-13.056h2.374l-5.964 20.206h-2.894Zm12.572.347c-1.139 0-1.708-.492-1.708-1.476v-.463c0-.985.57-1.477 1.708-1.477s1.708.492 1.708 1.477v.463c0 .984-.57 1.476-1.708 1.476Zm0-12.042c-1.139 0-1.708-.492-1.708-1.477v-.463c0-.984.57-1.476 1.708-1.476s1.708.492 1.708 1.476v.463c0 .985-.57 1.477-1.708 1.477ZM203.715 349.785c0-.104.086-.242.259-.415.173-.172.311-.259.415-.259.449 1.002.95 2.056 1.503 3.162a18.356 18.356 0 0 0 1.917 3.058 10.09 10.09 0 0 0 2.592 2.28c.967.622 2.073.933 3.317.933 1.106 0 2.073-.294 2.902-.881.83-.587 1.4-1.451 1.711-2.591.207-2.834.19-5.65-.052-8.448a166.674 166.674 0 0 0-.933-8.345c-.38-2.799-.76-5.58-1.14-8.344a68.883 68.883 0 0 1-.622-8.448c0-.173-.018-.38-.052-.622 0-.277.034-.536.104-.778.069-.241.172-.449.311-.622.138-.172.38-.259.725-.259.38 0 .708.242.985.726a410.532 410.532 0 0 1 2.332 15.393 117.926 117.926 0 0 1 1.037 15.497c0 1.382-.104 2.66-.311 3.835-.173 1.175-.536 2.177-1.089 3.006-.553.864-1.313 1.538-2.28 2.021-.968.519-2.211.778-3.732.778a8.165 8.165 0 0 1-3.783-.933 10.659 10.659 0 0 1-3.162-2.436 12.544 12.544 0 0 1-2.177-3.421 10.269 10.269 0 0 1-.777-3.887Zm20.317.207a30.638 30.638 0 0 1-.363-4.612c0-1.521.086-3.058.259-4.613.207-1.555.484-3.162.829-4.82.38-1.693.812-3.507 1.296-5.442 0-.38.104-.726.311-1.037.207-.345.484-.622.829-.829a4.687 4.687 0 0 1 1.089-.57c.38-.138.743-.207 1.088-.207a3.3 3.3 0 0 1 2.073.725 8.098 8.098 0 0 1 1.659 1.762c.518.691.95 1.434 1.295 2.229.38.76.691 1.417.933 1.97.277 1.209.467 2.591.57 4.146.139 1.52.156 3.075.052 4.664a27.253 27.253 0 0 1-.725 4.717 17.948 17.948 0 0 1-1.607 4.198 10.146 10.146 0 0 1-2.695 3.213c-1.071.864-2.35 1.4-3.835 1.607-.795 0-1.4-.259-1.814-.778-.415-.552-.726-1.209-.933-1.969a14.004 14.004 0 0 1-.311-2.384v-1.97Zm2.643-.155v.985l.104.933c.069.276.138.587.207.932l.363 1.089h.311c.829 0 1.537-.277 2.125-.829.587-.553 1.088-1.262 1.503-2.125.414-.899.76-1.883 1.036-2.955.277-1.105.484-2.176.622-3.213.173-1.071.277-2.056.311-2.954.069-.933.104-1.676.104-2.229v-1.036c0-.45-.017-.951-.052-1.503a15.565 15.565 0 0 0-.207-1.763 7.343 7.343 0 0 0-.363-1.658c-.173-.518-.397-.933-.674-1.244-.276-.311-.639-.466-1.088-.466-.76-.242-1.417-.19-1.97.155-.518.346-.95.933-1.295 1.762-.311.795-.553 1.78-.726 2.954a32.296 32.296 0 0 0-.311 3.888 183.02 183.02 0 0 0-.052 4.509c.035 1.589.052 3.178.052 4.768Zm13.061-3.939-.778.155a3.73 3.73 0 0 1-1.088.052 2.202 2.202 0 0 1-.985-.311c-.311-.172-.466-.466-.466-.881 0-.242.052-.414.155-.518.104-.104.277-.259.518-.467.761-.621 1.4-1.416 1.918-2.384a29.582 29.582 0 0 0 1.503-3.161c.449-1.14.916-2.263 1.399-3.369a17.304 17.304 0 0 1 1.763-3.058 7.736 7.736 0 0 1 2.436-2.177c.967-.553 2.159-.812 3.576-.777.587 0 1.244.138 1.969.415.726.276 1.4.656 2.021 1.14a5.927 5.927 0 0 1 1.555 1.658c.415.657.622 1.382.622 2.177.173.276 0 .674-.518 1.192-.484.518-1.157 1.088-2.021 1.71a56.633 56.633 0 0 1-2.955 1.866c-1.071.622-2.107 1.21-3.109 1.762a681.433 681.433 0 0 1-2.643 1.452c-.761.414-1.262.725-1.503.933a5.335 5.335 0 0 0-.415 1.192c-.104.449-.19.881-.259 1.295-.035.38-.069.743-.104 1.089v.725c0 .657-.034 1.382-.104 2.177-.034.795 0 1.555.104 2.28.138.692.432 1.279.881 1.763.449.449 1.21.673 2.281.673 1.14 0 2.211-.276 3.213-.829a14.956 14.956 0 0 0 2.799-2.125 19.132 19.132 0 0 0 2.332-2.695 59.73 59.73 0 0 0 1.918-2.695 31.728 31.728 0 0 1 1.554-2.125c.45-.553.83-.829 1.141-.829.345 0 .708.069 1.088.207.415.104.622.38.622.829 0 .622-.259 1.365-.777 2.229-.484.864-1.141 1.779-1.97 2.747a27.181 27.181 0 0 1-2.799 2.902 34.982 34.982 0 0 1-3.161 2.54 22.967 22.967 0 0 1-3.162 1.814c-1.036.449-1.952.674-2.747.674-1.554 0-2.729-.38-3.524-1.141-.795-.76-1.365-1.71-1.71-2.85a15.29 15.29 0 0 1-.518-3.628c0-1.313-.018-2.522-.052-3.628Zm9.536-13.994c-.587 0-1.209.294-1.866.881-.656.553-1.278 1.244-1.866 2.073a14.814 14.814 0 0 0-1.399 2.488c-.345.83-.518 1.521-.518 2.073.518 0 1.261-.19 2.228-.57a21.517 21.517 0 0 0 2.955-1.503 16.586 16.586 0 0 0 2.539-1.866c.726-.656 1.089-1.278 1.089-1.865a.984.984 0 0 0-.363-.778 3.133 3.133 0 0 0-.881-.518 4.673 4.673 0 0 0-.985-.311 4.815 4.815 0 0 0-.933-.104Zm14.564 22.546c.242-1.59.397-3.577.466-5.961.104-2.384.139-4.923.104-7.618 0-2.695-.052-5.477-.156-8.345-.103-2.868-.241-5.58-.414-8.137-.173-2.591-.38-4.906-.622-6.945-.207-2.038-.432-3.645-.674-4.82.311-.207.57-.363.778-.466a1.64 1.64 0 0 1 .829-.208c.242 0 .449.052.622.156.173.069.311.242.414.518a308.52 308.52 0 0 1 1.4 20.472c.276 6.876.483 13.718.622 20.524v1.296c0 .518-.018.795-.052.829-.484.242-.916.363-1.296.363a2.577 2.577 0 0 1-1.036-.311 2.75 2.75 0 0 1-.726-.674c-.173-.242-.259-.466-.259-.673Zm35.036.207c.069-.346.501-.674 1.295-.985.795-.311 1.78-.639 2.955-.985l3.887-1.14a47.388 47.388 0 0 0 4.094-1.399 22.981 22.981 0 0 0 3.576-1.762c1.106-.657 1.918-1.417 2.436-2.281 0-.518-.345-.915-1.036-1.192-.657-.276-1.555-.501-2.695-.674-1.106-.207-2.384-.362-3.836-.466a116.274 116.274 0 0 1-4.405-.518 90.171 90.171 0 0 1-4.405-.83c-1.417-.345-2.695-.812-3.836-1.399-1.105-.622-2.004-1.399-2.695-2.332-.656-.933-.985-2.073-.985-3.421 0-1.347.294-2.678.882-3.991a18.103 18.103 0 0 1 2.332-3.887 26.577 26.577 0 0 1 3.369-3.472 27.768 27.768 0 0 1 3.99-2.799c1.383-.795 2.747-1.417 4.095-1.866 1.382-.449 2.66-.674 3.835-.674h.985c.345-.034.639-.017.881.052.276.035.501.156.674.363.173.207.259.518.259.933 0 1.002-.328 1.728-.985 2.177-.656.414-1.451.622-2.384.622l-2.021-1.452c-.795 0-1.676.225-2.643.674-.933.449-1.901 1.054-2.903 1.814a23.841 23.841 0 0 0-2.85 2.54 24.807 24.807 0 0 0-2.488 3.006 19.873 19.873 0 0 0-1.711 3.11c-.414 1.036-.621 1.969-.621 2.798 0 1.21.328 2.194.984 2.955.691.725 1.59 1.312 2.695 1.762 1.141.414 2.436.725 3.887.933 1.452.207 2.92.38 4.406.518 1.486.138 2.954.276 4.405.414 1.451.104 2.73.311 3.836.622 1.14.311 2.038.726 2.695 1.244.691.519 1.036 1.227 1.036 2.125.38.553.294 1.192-.259 1.918-.518.691-1.347 1.399-2.488 2.125-1.105.691-2.436 1.399-3.99 2.125a63.973 63.973 0 0 1-4.717 1.917 80.114 80.114 0 0 1-4.716 1.452c-1.521.38-2.816.622-3.887.725-.311 0-.588-.103-.83-.311-.207-.207-.241-.57-.103-1.088Zm23.789.415c.484-.519.898-.864 1.244-1.037.345-.207.795-.311 1.347-.311.933 0 1.4.449 1.4 1.348 0 .207-.069.449-.208.725a2.844 2.844 0 0 1-.466.726c-.173.242-.38.432-.622.57-.242.103-.466.103-.674 0a.786.786 0 0 1-.777.103 1.558 1.558 0 0 1-.674-.414 2.756 2.756 0 0 1-.518-.726 1.886 1.886 0 0 1-.052-.984Z" fill="#000"/><path stroke="#000" stroke-width="4.825" d="M43.423 377.68h381.154"/><path d="M50.65 413.387h6.34c2.335 0 4.14.81 5.413 2.431 1.274 1.602 1.91 4.159 1.91 7.672 0 3.512-.636 6.079-1.91 7.7-1.273 1.602-3.078 2.403-5.413 2.403h-6.34v-20.206Zm6.34 18.179c1.447 0 2.615-.501 3.503-1.505.887-1.003 1.331-2.441 1.331-4.313v-4.516c0-1.872-.444-3.31-1.331-4.314-.888-1.003-2.056-1.505-3.503-1.505h-4.024v16.153h4.024Zm21.801 2.027-1.795-6.05H69.73l-1.795 6.05H65.62l6.311-20.206h2.895l6.34 20.206H78.79Zm-4.66-15.632-.638-2.519h-.29l-.636 2.519-2.287 7.671h6.195l-2.345-7.671Zm14.575-2.548v18.18H86.39v-18.18h-5.703v-2.026H94.41v2.026h-5.703Zm10.874-2.026v13.084c0 .908.067 1.699.203 2.374.154.676.395 1.245.723 1.708.328.444.762.782 1.303 1.013.56.213 1.235.319 2.026.319 1.583 0 2.683-.444 3.3-1.332.637-.907.956-2.267.956-4.082v-13.084h2.316v12.621c0 1.351-.116 2.528-.348 3.532-.231.984-.608 1.804-1.129 2.461-.502.656-1.177 1.148-2.026 1.476-.83.309-1.853.463-3.069.463s-2.248-.154-3.097-.463c-.83-.328-1.506-.82-2.027-1.476-.501-.657-.868-1.477-1.1-2.461-.231-1.004-.347-2.181-.347-3.532v-12.621h2.316Zm29.624 6.339.202-3.473h-.289l-1.506 3.473-4.342 8.917-4.342-8.917-1.505-3.415h-.29l.203 3.415v13.867h-2.258v-20.206h3.068l3.648 7.845 1.36 3.734h.232l1.361-3.734 3.647-7.845h3.069v20.206h-2.258v-13.867Zm8.379 14.214c-1.138 0-1.708-.492-1.708-1.476v-.463c0-.985.57-1.477 1.708-1.477 1.139 0 1.708.492 1.708 1.477v.463c0 .984-.569 1.476-1.708 1.476Zm0-12.042c-1.138 0-1.708-.493-1.708-1.477v-.463c0-.984.57-1.476 1.708-1.476 1.139 0 1.708.492 1.708 1.476v.463c0 .984-.569 1.477-1.708 1.477ZM210.722 440.071c1.002-1.693 1.97-3.42 2.902-5.182a54.108 54.108 0 0 0 2.54-5.391 37.076 37.076 0 0 0 1.814-5.545c.449-1.9.691-3.853.726-5.857-.346-1.14-.726-2.021-1.141-2.643-.38-.656-.95-.898-1.71-.726-.76.139-1.797.743-3.11 1.814-1.313 1.072-3.092 2.73-5.338 4.976a15.567 15.567 0 0 1-.933-.674c-.276-.276-.414-.587-.414-.933v-.155a.861.861 0 0 0 .051-.208c.657-.725 1.4-1.554 2.229-2.487a29.162 29.162 0 0 1 2.799-2.644 15.41 15.41 0 0 1 3.109-2.021 7.776 7.776 0 0 1 3.525-.829c1.209.553 2.073 1.451 2.591 2.695.518 1.209.778 2.626.778 4.25.034 1.589-.139 3.3-.519 5.131a39.46 39.46 0 0 1-1.555 5.39 45.52 45.52 0 0 1-2.125 5.131c-.76 1.624-1.503 3.006-2.228 4.146l13.89-4.198h.259c.173-.034.311-.052.415-.052.172 0 .38.018.622.052.241.035.449.087.621.156.208.069.381.172.519.311a.637.637 0 0 1 .259.518c-1.244.795-2.695 1.451-4.354 1.969-1.624.519-3.317 1.02-5.079 1.503-1.727.45-3.421.899-5.079 1.348-1.659.449-3.144.985-4.457 1.607-.449 0-.83-.052-1.14-.156-.311-.138-.467-.57-.467-1.296Zm30.268.363c0-.553.293-1.123.881-1.71a27.775 27.775 0 0 1 2.228-1.866 96.517 96.517 0 0 1 2.955-2.177 23.13 23.13 0 0 0 2.902-2.539 14.8 14.8 0 0 0 2.229-2.954 6.708 6.708 0 0 0 .933-3.421c0-.864-.19-1.572-.571-2.125a3.6 3.6 0 0 0-1.347-1.348c-.553-.311-1.192-.518-1.918-.622a10.561 10.561 0 0 0-2.073-.207 4.277 4.277 0 0 0-2.177.363c-.656.276-1.33.622-2.021 1.036a31.46 31.46 0 0 0-1.969 1.244c-.622.415-1.244.761-1.866 1.037a3.494 3.494 0 0 1-1.762.259c-.553-.069-1.123-.38-1.711-.933v-.155c0-.104.018-.156.052-.156l9.226-10.573c1.002-1.382 1.503-2.453 1.503-3.213.034-.76-.242-1.261-.83-1.503-.553-.277-1.33-.328-2.332-.156-1.002.173-2.039.501-3.11.985a16.384 16.384 0 0 0-3.006 1.71c-.967.691-1.675 1.417-2.125 2.177a.838.838 0 0 0-.207.052h-.155c-.415 0-.812-.173-1.192-.518-.346-.38-.519-.778-.519-1.192 0-.484.277-.968.829-1.451.553-.519 1.262-1.002 2.125-1.452a22.8 22.8 0 0 1 2.903-1.347 42.87 42.87 0 0 1 3.161-1.089 29.676 29.676 0 0 1 2.903-.725c.898-.208 1.589-.311 2.073-.311.898.449 1.486 1.036 1.762 1.762.276.691.328 1.486.156 2.384-.139.864-.45 1.78-.933 2.747-.45.967-.985 1.918-1.607 2.851a52.51 52.51 0 0 1-1.814 2.695 76.76 76.76 0 0 0-1.555 2.228 4.356 4.356 0 0 1 2.332-.674 63.34 63.34 0 0 1 2.488-.051c.898 0 1.814.121 2.747.362a8.057 8.057 0 0 1 2.54 1.141 5.993 5.993 0 0 1 1.865 1.865c.484.726.726 1.607.726 2.644 0 1.727-.466 3.386-1.399 4.975a24.58 24.58 0 0 1-3.421 4.509 39.258 39.258 0 0 1-4.354 3.939 1351.324 1351.324 0 0 1-4.198 3.162 5.296 5.296 0 0 1-.933-.674 1.346 1.346 0 0 1-.414-.985Zm24.463-26.95c1.485.276 2.608.898 3.369 1.865.76.933 1.295 2.056 1.606 3.369.311 1.279.501 2.643.57 4.095.104 1.451.225 2.781.363 3.99 0 .588-.034 1.383-.104 2.385a36.99 36.99 0 0 1-.259 3.161 32.402 32.402 0 0 1-.622 3.421 13.24 13.24 0 0 1-1.192 3.161c-.483.933-1.105 1.693-1.865 2.281-.726.587-1.607.881-2.644.881-.622.276-1.261.121-1.917-.467-.622-.587-1.21-1.468-1.763-2.643-.552-1.175-1.053-2.574-1.503-4.198a33.974 33.974 0 0 1-.881-5.079 34.578 34.578 0 0 1-.103-5.339c.138-1.762.466-3.386.984-4.871.519-1.521 1.262-2.816 2.229-3.887.968-1.072 2.211-1.78 3.732-2.125Zm-4.768 9.329c0 3.697.138 6.72.414 9.07.311 2.349.691 4.146 1.14 5.39.45 1.244.951 2.021 1.503 2.332.588.276 1.158.225 1.711-.155.587-.381 1.157-1.037 1.71-1.97.553-.967 1.002-2.073 1.348-3.317.38-1.244.656-2.557.829-3.939a17.67 17.67 0 0 0 .052-4.043c0-1.002-.069-2.055-.208-3.161a17.026 17.026 0 0 0-.57-3.11c-.242-1.002-.604-1.883-1.088-2.643-.484-.795-1.089-1.365-1.814-1.71-.622 0-1.244.259-1.866.777a9.489 9.489 0 0 0-1.607 1.866 14.108 14.108 0 0 0-1.14 2.28c-.311.795-.466 1.469-.466 2.022v.207c0 .035.017.069.052.104Zm31.667-9.9c-.691.864-1.452 1.849-2.281 2.955a67.061 67.061 0 0 1-2.591 3.265 60.363 60.363 0 0 1-2.799 3.11 22.344 22.344 0 0 1-2.954 2.591c-1.002.691-2.021 1.192-3.058 1.503a5.244 5.244 0 0 1-3.006.052c-.242 0-.484-.087-.726-.259a4.054 4.054 0 0 1-.622-.674 3.829 3.829 0 0 1-.414-.933 3.422 3.422 0 0 1-.156-.985c0-1.105.19-2.28.57-3.524a22.978 22.978 0 0 1 1.659-3.835 23.86 23.86 0 0 1 2.436-3.732 20.28 20.28 0 0 1 3.006-3.162 15.207 15.207 0 0 1 3.472-2.228c1.21-.553 2.402-.829 3.576-.829 1.279 0 2.315.19 3.11.57.795.38 1.417.881 1.866 1.503.484.622.812 1.365.985 2.228.207.83.345 1.711.414 2.644.069.932.087 1.9.052 2.902 0 .967.017 1.9.052 2.799.069 1.658.173 3.351.311 5.079.173 1.693.328 3.386.466 5.079.173 1.659.311 3.334.415 5.027a60.63 60.63 0 0 1 .207 5.028c0 .276-.017.587-.051.933 0 .345-.052.673-.156.984a1.677 1.677 0 0 1-.466.83c-.242.207-.588.311-1.037.311-.345 0-.587-.139-.726-.415a5.812 5.812 0 0 1-.259-.985c.035-.864.018-2.021-.052-3.472a291.063 291.063 0 0 0-.155-4.768 167.567 167.567 0 0 0-.311-5.442c-.104-1.901-.207-3.732-.311-5.494a531.211 531.211 0 0 0-.311-4.924 380.76 380.76 0 0 1-.155-3.732Zm-15.912 7.982c-.276 1.14-.311 1.9-.103 2.28.242.381.656.484 1.244.311.587-.172 1.313-.57 2.176-1.192a30.678 30.678 0 0 0 2.695-2.332 47.55 47.55 0 0 0 2.851-3.006 61.062 61.062 0 0 0 2.54-3.213c.76-1.037 1.382-2.004 1.865-2.903.484-.898.761-1.624.83-2.176-1.866 0-3.507.328-4.924.984a13.312 13.312 0 0 0-3.835 2.695c-1.106 1.106-2.108 2.402-3.006 3.887a41.934 41.934 0 0 0-2.333 4.665Zm30.631-7.411c1.486.276 2.609.898 3.369 1.865.76.933 1.295 2.056 1.606 3.369.311 1.279.501 2.643.57 4.095.104 1.451.225 2.781.363 3.99 0 .588-.034 1.383-.103 2.385a37.427 37.427 0 0 1-.26 3.161 32.65 32.65 0 0 1-.621 3.421 13.285 13.285 0 0 1-1.193 3.161c-.483.933-1.105 1.693-1.865 2.281-.726.587-1.607.881-2.644.881-.622.276-1.261.121-1.917-.467-.622-.587-1.21-1.468-1.762-2.643-.553-1.175-1.054-2.574-1.503-4.198a33.72 33.72 0 0 1-.881-5.079 34.454 34.454 0 0 1-.104-5.339c.138-1.762.466-3.386.985-4.871.518-1.521 1.261-2.816 2.228-3.887.968-1.072 2.212-1.78 3.732-2.125Zm-4.768 9.329c0 3.697.138 6.72.414 9.07.311 2.349.691 4.146 1.14 5.39.45 1.244.951 2.021 1.504 2.332.587.276 1.157.225 1.71-.155.587-.381 1.157-1.037 1.71-1.97.553-.967 1.002-2.073 1.348-3.317.38-1.244.656-2.557.829-3.939a17.67 17.67 0 0 0 .052-4.043c0-1.002-.069-2.055-.208-3.161a17.026 17.026 0 0 0-.57-3.11c-.242-1.002-.604-1.883-1.088-2.643-.484-.795-1.088-1.365-1.814-1.71-.622 0-1.244.259-1.866.777a9.489 9.489 0 0 0-1.607 1.866 14.108 14.108 0 0 0-1.14 2.28c-.311.795-.466 1.469-.466 2.022v.207c0 .035.017.069.052.104Zm31.667-9.9a122.38 122.38 0 0 0-2.281 2.955 66.458 66.458 0 0 1-2.591 3.265 59.45 59.45 0 0 1-2.799 3.11 22.344 22.344 0 0 1-2.954 2.591c-1.002.691-2.021 1.192-3.058 1.503a5.244 5.244 0 0 1-3.006.052c-.242 0-.484-.087-.726-.259a4.054 4.054 0 0 1-.622-.674 3.867 3.867 0 0 1-.414-.933 3.422 3.422 0 0 1-.156-.985c0-1.105.19-2.28.57-3.524a22.978 22.978 0 0 1 1.659-3.835 23.86 23.86 0 0 1 2.436-3.732 20.28 20.28 0 0 1 3.006-3.162 15.207 15.207 0 0 1 3.472-2.228c1.21-.553 2.402-.829 3.577-.829 1.278 0 2.315.19 3.109.57.795.38 1.417.881 1.866 1.503.484.622.812 1.365.985 2.228.207.83.345 1.711.414 2.644.07.932.087 1.9.052 2.902 0 .967.018 1.9.052 2.799.069 1.658.173 3.351.311 5.079.173 1.693.328 3.386.467 5.079.172 1.659.311 3.334.414 5.027a60.63 60.63 0 0 1 .207 5.028c0 .276-.017.587-.051.933 0 .345-.052.673-.156.984a1.67 1.67 0 0 1-.466.83c-.242.207-.588.311-1.037.311-.345 0-.587-.139-.725-.415a5.807 5.807 0 0 1-.26-.985c.035-.864.018-2.021-.051-3.472a303.4 303.4 0 0 0-.156-4.768 167.567 167.567 0 0 0-.311-5.442c-.104-1.901-.207-3.732-.311-5.494a498.592 498.592 0 0 0-.311-4.924 380.76 380.76 0 0 1-.155-3.732Zm-15.912 7.982c-.276 1.14-.311 1.9-.103 2.28.242.381.656.484 1.244.311.587-.172 1.313-.57 2.176-1.192a30.683 30.683 0 0 0 2.696-2.332 47.827 47.827 0 0 0 2.85-3.006 60.543 60.543 0 0 0 2.54-3.213c.76-1.037 1.382-2.004 1.865-2.903.484-.898.761-1.624.83-2.176-1.866 0-3.507.328-4.924.984a13.312 13.312 0 0 0-3.835 2.695c-1.106 1.106-2.108 2.402-3.006 3.887a41.934 41.934 0 0 0-2.333 4.665Z" fill="#000"/><path stroke="#000" stroke-width="4.825" d="M43.423 462.68h381.154"/><path d="M56.874 500.413v18.18h-2.316v-18.18h-5.703v-2.026h13.722v2.026h-5.703Zm7.289 18.527c-1.139 0-1.708-.492-1.708-1.476v-.463c0-.985.57-1.477 1.708-1.477s1.708.492 1.708 1.477v.463c0 .984-.57 1.476-1.708 1.476Zm11.383 0c-2.45 0-4.351-.839-5.702-2.518-1.351-1.679-2.027-4.323-2.027-7.932s.676-6.253 2.027-7.932c1.35-1.679 3.252-2.519 5.703-2.519 2.45 0 4.351.84 5.702 2.519 1.351 1.679 2.027 4.323 2.027 7.932s-.676 6.253-2.027 7.932c-1.35 1.679-3.251 2.518-5.703 2.518Zm0-2.055c1.68 0 2.972-.55 3.88-1.65.907-1.12 1.36-2.615 1.36-4.487v-4.516c0-1.872-.453-3.358-1.36-4.458-.907-1.12-2.2-1.679-3.88-1.679-1.678 0-2.972.559-3.879 1.679-.907 1.1-1.36 2.586-1.36 4.458v4.516c0 1.872.453 3.367 1.36 4.487.907 1.1 2.2 1.65 3.88 1.65Zm11.374 2.055c-1.139 0-1.708-.492-1.708-1.476v-.463c0-.985.57-1.477 1.708-1.477 1.139 0 1.708.492 1.708 1.477v.463c0 .984-.57 1.476-1.708 1.476Zm20.092-14.214.202-3.473h-.289l-1.505 3.473-4.343 8.917-4.342-8.917-1.505-3.415h-.29l.203 3.415v13.867h-2.258v-20.206h3.068l3.648 7.845 1.36 3.734h.232l1.361-3.734 3.647-7.845h3.069v20.206h-2.258v-13.867Zm8.379 14.214c-1.138 0-1.708-.492-1.708-1.476v-.463c0-.985.57-1.477 1.708-1.477 1.139 0 1.708.492 1.708 1.477v.463c0 .984-.569 1.476-1.708 1.476Zm0-12.042c-1.138 0-1.708-.493-1.708-1.477v-.463c0-.984.57-1.476 1.708-1.476 1.139 0 1.708.492 1.708 1.476v.463c0 .984-.569 1.477-1.708 1.477ZM197.371 525.071a125.23 125.23 0 0 0 2.903-5.182 54.096 54.096 0 0 0 2.539-5.391 36.962 36.962 0 0 0 1.814-5.545c.45-1.9.691-3.853.726-5.857-.345-1.14-.726-2.021-1.14-2.643-.38-.656-.95-.898-1.711-.726-.76.139-1.796.743-3.109 1.814-1.313 1.072-3.093 2.73-5.339 4.976a15.55 15.55 0 0 1-.932-.674c-.277-.276-.415-.587-.415-.933v-.155a.881.881 0 0 0 .052-.208c.656-.725 1.399-1.554 2.228-2.487a29.162 29.162 0 0 1 2.799-2.644 15.417 15.417 0 0 1 3.11-2.021 7.77 7.77 0 0 1 3.524-.829c1.209.553 2.073 1.451 2.592 2.695.518 1.209.777 2.626.777 4.25.035 1.589-.138 3.3-.518 5.131a39.603 39.603 0 0 1-1.555 5.39 45.52 45.52 0 0 1-2.125 5.131c-.76 1.624-1.503 3.006-2.229 4.146l13.89-4.198h.259c.173-.034.311-.052.415-.052.173 0 .38.018.622.052.242.035.449.087.622.156.207.069.38.172.518.311a.637.637 0 0 1 .259.518c-1.244.795-2.695 1.451-4.353 1.969-1.624.519-3.317 1.02-5.079 1.503-1.728.45-3.421.899-5.08 1.348-1.658.449-3.144.985-4.457 1.607-.449 0-.829-.052-1.14-.156-.311-.138-.467-.57-.467-1.296Zm28.713 2.069c-1.036-.032-1.916-.33-2.638-.895a7.266 7.266 0 0 1-1.744-2.121 13.356 13.356 0 0 1-1.036-2.921 23.981 23.981 0 0 1-.518-3.298 36.708 36.708 0 0 1-.142-3.157c0-1.036.016-1.932.047-2.685l4.194-23.559c.063-.188.267-.33.612-.424.377-.125.691-.188.943-.188.345 0 .581.125.706.377.126.251.189.534.189.848 0 .031-.016.125-.047.282v.283l-1.791 8.151a507.376 507.376 0 0 0-1.178 5.89 217.792 217.792 0 0 0-.753 4.005 270.679 270.679 0 0 0-.377 2.544c-.095.628-.142 1.115-.142 1.461V517.481c0 1.508.204 2.906.613 4.193.314-.816.644-1.712.989-2.685a48.795 48.795 0 0 1 1.131-2.969c.44-1.005.911-1.963 1.414-2.874a12.28 12.28 0 0 1 1.79-2.45A7.596 7.596 0 0 1 230.56 509c.817-.44 1.744-.66 2.78-.66.534 0 .958.016 1.272.047.346.032.597.126.754.283.157.126.267.346.33.66.063.283.094.691.094 1.225 0 .691-.125 1.57-.377 2.638a26.624 26.624 0 0 1-1.083 3.44 34.134 34.134 0 0 1-1.602 3.722 24.802 24.802 0 0 1-2.026 3.392c-.691.974-1.445 1.791-2.262 2.451-.785.628-1.57.942-2.356.942Zm-.801-3.911c.22.691.519 1.084.896 1.178.377.063.785-.063 1.225-.377.471-.345.942-.816 1.413-1.413.503-.629.99-1.32 1.461-2.073.471-.754.911-1.508 1.319-2.262.44-.754.817-1.429 1.131-2.026.722-1.728 1.115-3.031 1.178-3.911.094-.879-.016-1.429-.33-1.649-.283-.22-.738-.157-1.366.189-.597.314-1.257.816-1.979 1.507a22.509 22.509 0 0 0-2.121 2.498 20.282 20.282 0 0 0-1.79 2.921 12.239 12.239 0 0 0-1.084 2.921c-.22.974-.204 1.806.047 2.497Zm20.397-24.745c1.486.276 2.609.898 3.369 1.865.76.933 1.296 2.056 1.607 3.369.311 1.279.501 2.643.57 4.095.103 1.451.224 2.781.363 3.99 0 .588-.035 1.383-.104 2.385a37.822 37.822 0 0 1-.259 3.161 32.66 32.66 0 0 1-.622 3.421 13.326 13.326 0 0 1-1.192 3.161c-.484.933-1.106 1.693-1.866 2.281-.726.587-1.607.881-2.643.881-.622.276-1.261.121-1.918-.467-.622-.587-1.209-1.468-1.762-2.643-.553-1.175-1.054-2.574-1.503-4.198a33.847 33.847 0 0 1-.881-5.079 34.454 34.454 0 0 1-.104-5.339c.138-1.762.467-3.386.985-4.871.518-1.521 1.261-2.816 2.229-3.887.967-1.072 2.211-1.78 3.731-2.125Zm-4.768 9.329c0 3.697.138 6.72.415 9.07.311 2.349.691 4.146 1.14 5.39.449 1.244.95 2.021 1.503 2.332.587.276 1.157.225 1.71-.155.588-.381 1.158-1.037 1.71-1.97.553-.967 1.002-2.073 1.348-3.317a23.32 23.32 0 0 0 .829-3.939 17.67 17.67 0 0 0 .052-4.043c0-1.002-.069-2.055-.207-3.161a17.197 17.197 0 0 0-.57-3.11c-.242-1.002-.605-1.883-1.089-2.643-.483-.795-1.088-1.365-1.814-1.71-.622 0-1.244.259-1.866.777a9.485 9.485 0 0 0-1.606 1.866 14.108 14.108 0 0 0-1.14 2.28c-.311.795-.467 1.469-.467 2.022v.207c0 .035.017.069.052.104Zm29.914-7.247c-.628.785-1.319 1.681-2.073 2.686a60.264 60.264 0 0 1-2.356 2.968 53.757 53.757 0 0 1-2.544 2.827 20.303 20.303 0 0 1-2.686 2.356c-.911.628-1.837 1.084-2.78 1.366a4.753 4.753 0 0 1-2.732.047c-.22 0-.44-.078-.66-.235a3.596 3.596 0 0 1-.565-.613 3.465 3.465 0 0 1-.377-.848 3.123 3.123 0 0 1-.142-.895c0-1.005.173-2.073.519-3.204a20.948 20.948 0 0 1 1.507-3.487 21.78 21.78 0 0 1 2.215-3.392 18.4 18.4 0 0 1 2.733-2.874 13.802 13.802 0 0 1 3.156-2.026c1.1-.503 2.184-.754 3.252-.754 1.162 0 2.104.173 2.827.518.722.346 1.287.801 1.696 1.367.439.565.738 1.24.895 2.026.188.754.314 1.555.377 2.403.063.848.078 1.727.047 2.638 0 .88.016 1.728.047 2.545.063 1.507.157 3.046.283 4.617.157 1.539.298 3.078.424 4.617.157 1.508.283 3.032.377 4.571.125 1.507.188 3.031.188 4.57 0 .251-.015.534-.047.848 0 .314-.047.613-.141.895a1.518 1.518 0 0 1-.424.754c-.22.189-.534.283-.943.283-.314 0-.534-.126-.659-.377a5.28 5.28 0 0 1-.236-.895c.032-.786.016-1.838-.047-3.157a263.076 263.076 0 0 0-.141-4.335c-.063-1.57-.157-3.219-.283-4.947-.094-1.728-.188-3.392-.283-4.994a484.032 484.032 0 0 0-.282-4.476c-.063-1.383-.11-2.513-.142-3.393Zm-14.465 7.256c-.251 1.037-.282 1.728-.094 2.073.22.346.597.44 1.131.283.534-.157 1.194-.518 1.979-1.084a27.929 27.929 0 0 0 2.45-2.12 43.025 43.025 0 0 0 2.591-2.733 54.41 54.41 0 0 0 2.309-2.921 22.666 22.666 0 0 0 1.696-2.639c.44-.816.691-1.476.754-1.978-1.696 0-3.188.298-4.476.895a12.098 12.098 0 0 0-3.487 2.45c-1.005 1.005-1.916 2.183-2.732 3.534a38.108 38.108 0 0 0-2.121 4.24Zm28.643-9.338c1.485.276 2.608.898 3.369 1.865.76.933 1.295 2.056 1.606 3.369.311 1.279.501 2.643.57 4.095.104 1.451.225 2.781.363 3.99 0 .588-.034 1.383-.104 2.385a36.99 36.99 0 0 1-.259 3.161 32.402 32.402 0 0 1-.622 3.421 13.24 13.24 0 0 1-1.192 3.161c-.483.933-1.105 1.693-1.866 2.281-.725.587-1.606.881-2.643.881-.622.276-1.261.121-1.917-.467-.622-.587-1.21-1.468-1.763-2.643-.552-1.175-1.053-2.574-1.503-4.198a33.974 33.974 0 0 1-.881-5.079 34.578 34.578 0 0 1-.103-5.339c.138-1.762.466-3.386.984-4.871.519-1.521 1.262-2.816 2.229-3.887.968-1.072 2.211-1.78 3.732-2.125Zm-4.769 9.329c0 3.697.139 6.72.415 9.07.311 2.349.691 4.146 1.14 5.39.45 1.244.951 2.021 1.503 2.332.588.276 1.158.225 1.711-.155.587-.381 1.157-1.037 1.71-1.97.553-.967 1.002-2.073 1.348-3.317.38-1.244.656-2.557.829-3.939a17.67 17.67 0 0 0 .052-4.043c0-1.002-.069-2.055-.208-3.161a17.026 17.026 0 0 0-.57-3.11c-.242-1.002-.604-1.883-1.088-2.643-.484-.795-1.089-1.365-1.814-1.71-.622 0-1.244.259-1.866.777a9.489 9.489 0 0 0-1.607 1.866 14.108 14.108 0 0 0-1.14 2.28c-.311.795-.466 1.469-.466 2.022v.207c0 .035.017.069.051.104Zm31.668-9.9c-.691.864-1.452 1.849-2.281 2.955a67.061 67.061 0 0 1-2.591 3.265 60.363 60.363 0 0 1-2.799 3.11 22.344 22.344 0 0 1-2.954 2.591c-1.002.691-2.022 1.192-3.058 1.503a5.244 5.244 0 0 1-3.006.052c-.242 0-.484-.087-.726-.259a4.054 4.054 0 0 1-.622-.674 3.829 3.829 0 0 1-.414-.933 3.422 3.422 0 0 1-.156-.985c0-1.105.19-2.28.57-3.524a22.978 22.978 0 0 1 1.659-3.835 23.86 23.86 0 0 1 2.436-3.732 20.28 20.28 0 0 1 3.006-3.162 15.186 15.186 0 0 1 3.472-2.228c1.21-.553 2.402-.829 3.576-.829 1.279 0 2.315.19 3.11.57.795.38 1.417.881 1.866 1.503.484.622.812 1.365.985 2.228.207.83.345 1.711.414 2.644.069.932.087 1.9.052 2.902 0 .967.017 1.9.052 2.799.069 1.658.173 3.351.311 5.079.173 1.693.328 3.386.466 5.079.173 1.659.311 3.334.415 5.027a60.63 60.63 0 0 1 .207 5.028c0 .276-.017.587-.051.933 0 .345-.052.673-.156.984a1.677 1.677 0 0 1-.466.83c-.242.207-.588.311-1.037.311-.346 0-.587-.139-.726-.415a5.812 5.812 0 0 1-.259-.985c.035-.864.018-2.021-.052-3.472a291.063 291.063 0 0 0-.155-4.768 167.567 167.567 0 0 0-.311-5.442c-.104-1.901-.207-3.732-.311-5.494a531.211 531.211 0 0 0-.311-4.924 380.76 380.76 0 0 1-.155-3.732Zm-15.912 7.982c-.276 1.14-.311 1.9-.103 2.28.241.381.656.484 1.243.311.588-.172 1.313-.57 2.177-1.192a30.678 30.678 0 0 0 2.695-2.332 47.55 47.55 0 0 0 2.851-3.006 60.504 60.504 0 0 0 2.539-3.213c.761-1.037 1.383-2.004 1.866-2.903.484-.898.76-1.624.83-2.176-1.866 0-3.507.328-4.924.984a13.312 13.312 0 0 0-3.835 2.695c-1.106 1.106-2.108 2.402-3.006 3.887a41.934 41.934 0 0 0-2.333 4.665Z" fill="#000"/><path stroke="#000" stroke-width="4.825" d="M43.423 547.68h381.154"/></g><defs><clipPath id="a"><rect width="468" height="588.691" rx="16" fill="#fff"/></clipPath></defs></svg>