<svg width="131" height="131" viewBox="0 0 131 131" fill="none" xmlns="http://www.w3.org/2000/svg">
<circle cx="65.5896" cy="65.5897" r="55.9125" stroke="white" stroke-width="2.15048"/>
<circle cx="65.5" cy="65.5" r="63.1703" stroke="white" stroke-width="4.65937"/>
<circle cx="65.5558" cy="27.7018" r="8.08734" transform="rotate(9.00527 65.5558 27.7018)" stroke="white" stroke-width="2.48841"/>
<ellipse cx="65.4724" cy="27.7041" rx="4.35472" ry="4.35472" transform="rotate(9.00525 65.4724 27.7041)" fill="white"/>
<rect width="2.50889" height="63.6433" transform="matrix(0.987674 0.156526 -0.156525 0.987674 64.3094 27.4706)" fill="white"/>
<path d="M53.1527 94.6301C54.1497 96.3249 53.3424 97.7112 54.4447 97.8859L56.2266 86.6421C52.5889 86.0656 52.0245 88.9141 51.8847 89.796C51.6576 91.229 51.9064 92.5115 53.1527 94.6301Z" fill="white"/>
<path d="M56.6801 95.1891C55.2079 96.4926 55.5471 98.0606 54.4447 97.8859L56.2266 86.6421C59.8643 87.2186 59.5204 90.1021 59.3806 90.984C59.1535 92.417 58.5204 93.5597 56.6801 95.1891Z" fill="white"/>
<line x1="44.855" y1="108.107" x2="49.2147" y2="99.0674" stroke="white" stroke-width="1.07524"/>
<line y1="-0.53762" x2="8.2435" y2="-0.53762" transform="matrix(0.351943 -0.936021 0.936026 0.35193 49.3008 110.036)" stroke="white" stroke-width="1.07524"/>
<line y1="-0.53762" x2="8.2435" y2="-0.53762" transform="matrix(0.26662 -0.963802 0.963804 0.26661 53.3986 111.37)" stroke="white" stroke-width="1.07524"/>
<line y1="-0.53762" x2="8.2435" y2="-0.53762" transform="matrix(0.179148 -0.983822 0.983822 0.179147 57.5995 112.332)" stroke="white" stroke-width="1.07524"/>
<line y1="-0.53762" x2="8.2435" y2="-0.53762" transform="matrix(0.0902346 -0.995921 0.99592 0.0902394 61.8696 112.913)" stroke="white" stroke-width="1.07524"/>
<line y1="-0.53762" x2="10.0356" y2="-0.53762" transform="matrix(0.000597273 -1 1 0.000602992 66.1746 113.109)" stroke="white" stroke-width="1.07524"/>
<line x1="69.9445" y1="112.966" x2="69.2105" y2="104.755" stroke="white" stroke-width="1.07524"/>
<line y1="-0.53762" x2="8.2435" y2="-0.53762" transform="matrix(-0.17796 -0.984038 0.984035 -0.177973 74.7507 112.342)" stroke="white" stroke-width="1.07524"/>
<line y1="-0.53762" x2="8.2435" y2="-0.53762" transform="matrix(-0.265454 -0.964124 0.964121 -0.265463 78.9527 111.386)" stroke="white" stroke-width="1.07524"/>
<line y1="-0.53762" x2="8.2435" y2="-0.53762" transform="matrix(-0.350806 -0.936448 0.936443 -0.35082 83.0521 110.057)" stroke="white" stroke-width="1.07524"/>
<line y1="-0.53762" x2="10.0356" y2="-0.53762" transform="matrix(-0.433342 -0.90123 0.901229 -0.433344 87.0158 108.365)" stroke="white" stroke-width="1.07524"/>
<path d="M43.9038 82.0848H28.6946V79.4469L32.569 76.1083V53.9333L27.9526 52.6555L29.4365 49.6879H44.6457V52.2846L40.7301 55.6644V77.7982L45.3876 79.076L43.9038 82.0848ZM88.0317 79.076L86.5478 82.0848H71.3386V79.4469L75.213 76.1083V53.9333L70.5967 52.6555L72.0805 49.6879H87.2898V52.2846L83.3741 55.6644V77.7982L88.0317 79.076ZM105.302 82.0848H96.1515L84.7343 65.8451L96.3988 55.5408L91.5764 52.6555L93.0602 49.6879H105.838V52.2846L92.8129 63.8255L102.375 77.0563L106.786 79.076L105.302 82.0848Z" fill="white"/>
</svg>
